<svg width="122" height="19" viewBox="0 0 122 19" fill="none" xmlns="http://www.w3.org/2000/svg">
<path d="M2.04 15C1.52 15 1.12 14.86 0.84 14.58C0.56 14.3 0.42 13.9 0.42 13.38V2.52C0.42 2 0.56 1.6 0.84 1.32C1.12 1.04 1.52 0.899999 2.04 0.899999H6.88C7.88 0.899999 8.73333 1.04667 9.44 1.34C10.1467 1.63333 10.68 2.05333 11.04 2.6C11.4133 3.14667 11.6 3.8 11.6 4.56C11.6 5.4 11.36 6.11333 10.88 6.7C10.4 7.28667 9.74 7.68 8.9 7.88V7.56C9.87333 7.73333 10.6267 8.12 11.16 8.72C11.7067 9.30667 11.98 10.0733 11.98 11.02C11.98 12.2733 11.5467 13.2533 10.68 13.96C9.81333 14.6533 8.62 15 7.1 15H2.04ZM3.38 12.7H6.68C7.48 12.7 8.06667 12.5467 8.44 12.24C8.81333 11.92 9 11.4533 9 10.84C9 10.2267 8.81333 9.76667 8.44 9.46C8.06667 9.15333 7.48 9 6.68 9H3.38V12.7ZM3.38 6.7H6.34C7.11333 6.7 7.68667 6.55333 8.06 6.26C8.43333 5.96667 8.62 5.52667 8.62 4.94C8.62 4.36667 8.43333 3.93333 8.06 3.64C7.68667 3.34667 7.11333 3.2 6.34 3.2H3.38V6.7ZM18.7862 15.22C17.7329 15.22 16.8129 15.0133 16.0263 14.6C15.2529 14.1867 14.6529 13.5933 14.2262 12.82C13.7996 12.0467 13.5863 11.1333 13.5863 10.08C13.5863 9.29333 13.7063 8.58667 13.9463 7.96C14.1863 7.33333 14.5329 6.8 14.9863 6.36C15.4529 5.90667 16.0063 5.56667 16.6463 5.34C17.2863 5.1 17.9996 4.98 18.7862 4.98C19.8396 4.98 20.7529 5.18667 21.5263 5.6C22.3129 6.01333 22.9196 6.6 23.3463 7.36C23.7863 8.12 24.0063 9.02667 24.0063 10.08C24.0063 10.88 23.8796 11.5933 23.6263 12.22C23.3863 12.8467 23.0396 13.3867 22.5863 13.84C22.1329 14.2933 21.5796 14.64 20.9263 14.88C20.2863 15.1067 19.5729 15.22 18.7862 15.22ZM18.7862 12.96C19.2263 12.96 19.6063 12.8533 19.9263 12.64C20.2463 12.4267 20.4996 12.1133 20.6863 11.7C20.8729 11.2733 20.9663 10.7333 20.9663 10.08C20.9663 9.10667 20.7663 8.39333 20.3663 7.94C19.9663 7.47333 19.4396 7.24 18.7862 7.24C18.3596 7.24 17.9796 7.34 17.6463 7.54C17.3263 7.74 17.0729 8.05333 16.8863 8.48C16.7129 8.89333 16.6263 9.42667 16.6263 10.08C16.6263 11.0533 16.8263 11.78 17.2263 12.26C17.6263 12.7267 18.1463 12.96 18.7862 12.96ZM31.9036 15.22C31.1169 15.22 30.4169 15.0267 29.8036 14.64C29.2036 14.24 28.8036 13.7133 28.6036 13.06L28.8236 12.4V13.64C28.8236 14.1333 28.6969 14.5133 28.4436 14.78C28.1903 15.0467 27.8236 15.18 27.3436 15.18C26.8636 15.18 26.4903 15.0467 26.2236 14.78C25.9703 14.5133 25.8436 14.1333 25.8436 13.64V2.26C25.8436 1.75333 25.9703 1.37333 26.2236 1.12C26.4903 0.853333 26.8703 0.719999 27.3636 0.719999C27.8436 0.719999 28.2103 0.853333 28.4636 1.12C28.7303 1.37333 28.8636 1.75333 28.8636 2.26V7H28.6236C28.8369 6.4 29.2436 5.91333 29.8436 5.54C30.4436 5.16667 31.1303 4.98 31.9036 4.98C32.7703 4.98 33.5236 5.18667 34.1636 5.6C34.8036 6.01333 35.3036 6.6 35.6636 7.36C36.0236 8.12 36.2036 9.02667 36.2036 10.08C36.2036 11.1333 36.0236 12.0467 35.6636 12.82C35.3036 13.5933 34.7969 14.1867 34.1436 14.6C33.5036 15.0133 32.7569 15.22 31.9036 15.22ZM31.0036 12.96C31.4303 12.96 31.8036 12.8533 32.1236 12.64C32.4569 12.4267 32.7103 12.1133 32.8836 11.7C33.0703 11.2733 33.1636 10.7333 33.1636 10.08C33.1636 9.10667 32.9636 8.39333 32.5636 7.94C32.1636 7.47333 31.6436 7.24 31.0036 7.24C30.5769 7.24 30.1969 7.34 29.8636 7.54C29.5436 7.74 29.2903 8.05333 29.1036 8.48C28.9169 8.89333 28.8236 9.42667 28.8236 10.08C28.8236 11.0533 29.0236 11.78 29.4236 12.26C29.8236 12.7267 30.3503 12.96 31.0036 12.96ZM44.1106 15.22C43.324 15.22 42.624 15.0267 42.0106 14.64C41.4106 14.24 41.0106 13.7133 40.8106 13.06L41.0306 12.4V13.64C41.0306 14.1333 40.904 14.5133 40.6506 14.78C40.3973 15.0467 40.0306 15.18 39.5506 15.18C39.0706 15.18 38.6973 15.0467 38.4306 14.78C38.1773 14.5133 38.0506 14.1333 38.0506 13.64V2.26C38.0506 1.75333 38.1773 1.37333 38.4306 1.12C38.6973 0.853333 39.0773 0.719999 39.5706 0.719999C40.0506 0.719999 40.4173 0.853333 40.6706 1.12C40.9373 1.37333 41.0706 1.75333 41.0706 2.26V7H40.8306C41.044 6.4 41.4506 5.91333 42.0506 5.54C42.6506 5.16667 43.3373 4.98 44.1106 4.98C44.9773 4.98 45.7306 5.18667 46.3706 5.6C47.0106 6.01333 47.5106 6.6 47.8706 7.36C48.2306 8.12 48.4106 9.02667 48.4106 10.08C48.4106 11.1333 48.2306 12.0467 47.8706 12.82C47.5106 13.5933 47.004 14.1867 46.3506 14.6C45.7106 15.0133 44.964 15.22 44.1106 15.22ZM43.2106 12.96C43.6373 12.96 44.0106 12.8533 44.3306 12.64C44.664 12.4267 44.9173 12.1133 45.0906 11.7C45.2773 11.2733 45.3706 10.7333 45.3706 10.08C45.3706 9.10667 45.1706 8.39333 44.7706 7.94C44.3706 7.47333 43.8506 7.24 43.2106 7.24C42.784 7.24 42.404 7.34 42.0706 7.54C41.7506 7.74 41.4973 8.05333 41.3106 8.48C41.124 8.89333 41.0306 9.42667 41.0306 10.08C41.0306 11.0533 41.2306 11.78 41.6306 12.26C42.0306 12.7267 42.5573 12.96 43.2106 12.96ZM52.7033 18.78C52.3566 18.78 52.0699 18.6867 51.8433 18.5C51.6166 18.3133 51.4833 18.0667 51.4433 17.76C51.4033 17.4667 51.4566 17.1533 51.6033 16.82L52.9433 13.86V15.1L49.4033 6.98C49.2699 6.63333 49.2233 6.31333 49.2633 6.02C49.3166 5.71333 49.4633 5.47333 49.7033 5.3C49.9566 5.11333 50.3033 5.02 50.7433 5.02C51.1033 5.02 51.3899 5.10667 51.6033 5.28C51.8299 5.44 52.0366 5.75333 52.2233 6.22L54.5833 12.22H53.9433L56.3833 6.2C56.5699 5.74667 56.7766 5.44 57.0033 5.28C57.2433 5.10667 57.5633 5.02 57.9633 5.02C58.3099 5.02 58.5833 5.11333 58.7833 5.3C58.9966 5.47333 59.1233 5.70667 59.1633 6C59.2166 6.29333 59.1633 6.61333 59.0033 6.96L54.3033 17.62C54.1033 18.0733 53.8766 18.38 53.6233 18.54C53.3833 18.7 53.0766 18.78 52.7033 18.78Z" fill="black"/>
<path d="M62.5673 15C62.0473 15 61.6473 14.86 61.3673 14.58C61.0873 14.3 60.9473 13.9 60.9473 13.38V2.52C60.9473 2 61.0873 1.6 61.3673 1.32C61.6473 1.04 62.0473 0.899999 62.5673 0.899999H66.4673C68.8807 0.899999 70.7407 1.51333 72.0473 2.74C73.3673 3.95333 74.0273 5.68667 74.0273 7.94C74.0273 9.07333 73.854 10.08 73.5073 10.96C73.174 11.8267 72.6873 12.56 72.0473 13.16C71.4073 13.76 70.6207 14.22 69.6873 14.54C68.754 14.8467 67.6807 15 66.4673 15H62.5673ZM64.0473 12.46H66.2873C67.0473 12.46 67.7073 12.3667 68.2673 12.18C68.8273 11.9933 69.294 11.7133 69.6673 11.34C70.0407 10.9667 70.3207 10.5 70.5073 9.94C70.694 9.36667 70.7873 8.7 70.7873 7.94C70.7873 6.42 70.4073 5.29333 69.6473 4.56C68.9007 3.81333 67.7807 3.44 66.2873 3.44H64.0473V12.46ZM79.4956 15.22C78.7756 15.22 78.129 15.08 77.5556 14.8C76.9823 14.52 76.5356 14.14 76.2156 13.66C75.8956 13.18 75.7356 12.64 75.7356 12.04C75.7356 11.32 75.9223 10.7533 76.2956 10.34C76.669 9.91333 77.2756 9.61333 78.1156 9.44C78.9556 9.25333 80.069 9.16 81.4556 9.16H82.5156V10.72H81.4756C80.7956 10.72 80.2423 10.76 79.8156 10.84C79.4023 10.9067 79.1023 11.0267 78.9156 11.2C78.7423 11.3733 78.6556 11.6133 78.6556 11.92C78.6556 12.2933 78.7823 12.6 79.0356 12.84C79.3023 13.08 79.6823 13.2 80.1756 13.2C80.5623 13.2 80.9023 13.1133 81.1956 12.94C81.5023 12.7533 81.7423 12.5067 81.9156 12.2C82.089 11.88 82.1756 11.52 82.1756 11.12V8.82C82.1756 8.23333 82.0423 7.82 81.7756 7.58C81.509 7.32667 81.0556 7.2 80.4156 7.2C80.0556 7.2 79.6623 7.24667 79.2356 7.34C78.8223 7.42 78.3623 7.56 77.8556 7.76C77.5623 7.89333 77.3023 7.92667 77.0756 7.86C76.849 7.78 76.6756 7.64667 76.5556 7.46C76.4356 7.26 76.3756 7.04667 76.3756 6.82C76.3756 6.58 76.4423 6.35333 76.5756 6.14C76.709 5.91333 76.929 5.74667 77.2356 5.64C77.8623 5.38667 78.449 5.21333 78.9956 5.12C79.5556 5.02667 80.069 4.98 80.5356 4.98C81.5623 4.98 82.4023 5.13333 83.0556 5.44C83.7223 5.73333 84.2223 6.19333 84.5556 6.82C84.889 7.43333 85.0556 8.22667 85.0556 9.2V13.64C85.0556 14.1333 84.9356 14.5133 84.6956 14.78C84.4556 15.0467 84.109 15.18 83.6556 15.18C83.2023 15.18 82.849 15.0467 82.5956 14.78C82.3556 14.5133 82.2356 14.1333 82.2356 13.64V12.9L82.3756 13.02C82.2956 13.4733 82.1223 13.8667 81.8556 14.2C81.6023 14.52 81.2756 14.7733 80.8756 14.96C80.4756 15.1333 80.0156 15.22 79.4956 15.22ZM88.8284 15.18C88.3351 15.18 87.9551 15.0467 87.6884 14.78C87.4351 14.5133 87.3084 14.1333 87.3084 13.64V6.54C87.3084 6.04667 87.4351 5.67333 87.6884 5.42C87.9551 5.15333 88.3218 5.02 88.7884 5.02C89.2684 5.02 89.6351 5.15333 89.8884 5.42C90.1418 5.67333 90.2684 6.04667 90.2684 6.54V7.68L90.0484 7.02C90.3551 6.36667 90.8084 5.86667 91.4084 5.52C92.0218 5.16 92.7151 4.98 93.4884 4.98C94.2751 4.98 94.9218 5.13333 95.4284 5.44C95.9351 5.73333 96.3151 6.18667 96.5684 6.8C96.8218 7.4 96.9484 8.16667 96.9484 9.1V13.64C96.9484 14.1333 96.8151 14.5133 96.5484 14.78C96.2951 15.0467 95.9218 15.18 95.4284 15.18C94.9484 15.18 94.5751 15.0467 94.3084 14.78C94.0551 14.5133 93.9284 14.1333 93.9284 13.64V9.24C93.9284 8.56 93.8018 8.07333 93.5484 7.78C93.3084 7.47333 92.9351 7.32 92.4284 7.32C91.7884 7.32 91.2751 7.52 90.8884 7.92C90.5151 8.32 90.3284 8.85333 90.3284 9.52V13.64C90.3284 14.6667 89.8284 15.18 88.8284 15.18ZM100.723 15.16C100.23 15.16 99.8496 15.02 99.583 14.74C99.3296 14.4467 99.203 14.04 99.203 13.52V6.68C99.203 6.14667 99.3296 5.74 99.583 5.46C99.8496 5.16667 100.23 5.02 100.723 5.02C101.203 5.02 101.57 5.16667 101.823 5.46C102.09 5.74 102.223 6.14667 102.223 6.68V13.52C102.223 14.04 102.096 14.4467 101.843 14.74C101.59 15.02 101.216 15.16 100.723 15.16ZM100.723 3.38C100.163 3.38 99.7296 3.25333 99.423 3C99.1296 2.73333 98.983 2.36 98.983 1.88C98.983 1.38667 99.1296 1.01333 99.423 0.76C99.7296 0.493333 100.163 0.359999 100.723 0.359999C101.283 0.359999 101.71 0.493333 102.003 0.76C102.296 1.01333 102.443 1.38667 102.443 1.88C102.443 2.36 102.296 2.73333 102.003 3C101.71 3.25333 101.283 3.38 100.723 3.38ZM109.655 15.22C108.495 15.22 107.495 15.0133 106.655 14.6C105.828 14.1733 105.188 13.58 104.735 12.82C104.295 12.0467 104.075 11.14 104.075 10.1C104.075 9.08667 104.288 8.2 104.715 7.44C105.141 6.66667 105.735 6.06667 106.495 5.64C107.268 5.2 108.141 4.98 109.115 4.98C109.821 4.98 110.461 5.1 111.035 5.34C111.608 5.56667 112.101 5.9 112.515 6.34C112.928 6.76667 113.241 7.29333 113.455 7.92C113.668 8.53333 113.775 9.22 113.775 9.98C113.775 10.2333 113.695 10.4267 113.535 10.56C113.375 10.68 113.141 10.74 112.835 10.74H106.555V9.18H111.595L111.275 9.46C111.275 8.91333 111.195 8.46 111.035 8.1C110.875 7.72667 110.641 7.44667 110.335 7.26C110.041 7.07333 109.675 6.98 109.235 6.98C108.741 6.98 108.321 7.09333 107.975 7.32C107.628 7.54667 107.361 7.87333 107.175 8.3C106.988 8.72667 106.895 9.24 106.895 9.84V10C106.895 11.0133 107.128 11.76 107.595 12.24C108.075 12.72 108.781 12.96 109.715 12.96C110.035 12.96 110.401 12.92 110.815 12.84C111.228 12.76 111.615 12.6333 111.975 12.46C112.281 12.3133 112.555 12.2667 112.795 12.32C113.035 12.36 113.221 12.4667 113.355 12.64C113.488 12.8133 113.561 13.0133 113.575 13.24C113.601 13.4667 113.555 13.6933 113.435 13.92C113.315 14.1333 113.115 14.3133 112.835 14.46C112.381 14.7133 111.868 14.9 111.295 15.02C110.735 15.1533 110.188 15.22 109.655 15.22ZM119.071 15.22C117.884 15.22 116.998 14.8933 116.411 14.24C115.824 13.5733 115.531 12.5867 115.531 11.28V2.26C115.531 1.75333 115.658 1.37333 115.911 1.12C116.178 0.853333 116.558 0.719999 117.051 0.719999C117.531 0.719999 117.898 0.853333 118.151 1.12C118.418 1.37333 118.551 1.75333 118.551 2.26V11.16C118.551 11.7067 118.664 12.1133 118.891 12.38C119.131 12.6333 119.444 12.76 119.831 12.76C119.938 12.76 120.038 12.7533 120.131 12.74C120.224 12.7267 120.324 12.72 120.431 12.72C120.644 12.6933 120.791 12.76 120.871 12.92C120.964 13.0667 121.011 13.3667 121.011 13.82C121.011 14.22 120.931 14.5267 120.771 14.74C120.611 14.94 120.364 15.0733 120.031 15.14C119.898 15.1533 119.744 15.1667 119.571 15.18C119.398 15.2067 119.231 15.22 119.071 15.22Z" fill="#226BDA"/>
</svg>
